<svg width="200" height="200" viewBox="0 0 200 200" fill="none" xmlns="http://www.w3.org/2000/svg">
<path d="M39.8249 94L36.5849 89.32H36.3929H33.0089V94H29.1209V77.2H36.3929C37.8809 77.2 39.1689 77.448 40.2569 77.944C41.3609 78.44 42.2089 79.144 42.8009 80.056C43.3929 80.968 43.6889 82.048 43.6889 83.296C43.6889 84.544 43.3849 85.624 42.7769 86.536C42.1849 87.432 41.3369 88.12 40.2329 88.6L44.0009 94H39.8249ZM39.7529 83.296C39.7529 82.352 39.4489 81.632 38.8409 81.136C38.2329 80.624 37.3449 80.368 36.1769 80.368H33.0089V86.224H36.1769C37.3449 86.224 38.2329 85.968 38.8409 85.456C39.4489 84.944 39.7529 84.224 39.7529 83.296ZM54.9053 94.288C53.1613 94.288 51.5853 93.912 50.1773 93.16C48.7853 92.408 47.6893 91.376 46.8893 90.064C46.1053 88.736 45.7133 87.248 45.7133 85.6C45.7133 83.952 46.1053 82.472 46.8893 81.16C47.6893 79.832 48.7853 78.792 50.1773 78.04C51.5853 77.288 53.1613 76.912 54.9053 76.912C56.6493 76.912 58.2173 77.288 59.6093 78.04C61.0013 78.792 62.0973 79.832 62.8973 81.16C63.6973 82.472 64.0973 83.952 64.0973 85.6C64.0973 87.248 63.6973 88.736 62.8973 90.064C62.0973 91.376 61.0013 92.408 59.6093 93.16C58.2173 93.912 56.6493 94.288 54.9053 94.288ZM54.9053 90.976C55.8973 90.976 56.7933 90.752 57.5933 90.304C58.3933 89.84 59.0173 89.2 59.4653 88.384C59.9293 87.568 60.1613 86.64 60.1613 85.6C60.1613 84.56 59.9293 83.632 59.4653 82.816C59.0173 82 58.3933 81.368 57.5933 80.92C56.7933 80.456 55.8973 80.224 54.9053 80.224C53.9133 80.224 53.0173 80.456 52.2173 80.92C51.4173 81.368 50.7853 82 50.3213 82.816C49.8733 83.632 49.6493 84.56 49.6493 85.6C49.6493 86.64 49.8733 87.568 50.3213 88.384C50.7853 89.2 51.4173 89.84 52.2173 90.304C53.0173 90.752 53.9133 90.976 54.9053 90.976ZM76.994 94L72.938 88.168L68.954 94H64.49L70.706 85.456L64.802 77.2H69.218L73.082 82.648L76.874 77.2H81.074L75.218 85.312L81.482 94H76.994ZM93.7396 90.4H85.9396L84.4516 94H80.4676L87.9556 77.2H91.7956L99.3076 94H95.2276L93.7396 90.4ZM92.5156 87.448L89.8516 81.016L87.1876 87.448H92.5156ZM106.571 94.288C105.243 94.288 103.955 94.112 102.707 93.76C101.475 93.392 100.483 92.92 99.7306 92.344L101.051 89.416C101.771 89.944 102.627 90.368 103.619 90.688C104.611 91.008 105.603 91.168 106.595 91.168C107.699 91.168 108.515 91.008 109.043 90.688C109.571 90.352 109.835 89.912 109.835 89.368C109.835 88.968 109.675 88.64 109.355 88.384C109.051 88.112 108.651 87.896 108.155 87.736C107.675 87.576 107.019 87.4 106.187 87.208C104.907 86.904 103.859 86.6 103.043 86.296C102.227 85.992 101.523 85.504 100.931 84.832C100.355 84.16 100.067 83.264 100.067 82.144C100.067 81.168 100.331 80.288 100.859 79.504C101.387 78.704 102.179 78.072 103.235 77.608C104.307 77.144 105.611 76.912 107.147 76.912C108.219 76.912 109.267 77.04 110.291 77.296C111.315 77.552 112.211 77.92 112.979 78.4L111.779 81.352C110.227 80.472 108.675 80.032 107.123 80.032C106.035 80.032 105.227 80.208 104.699 80.56C104.187 80.912 103.931 81.376 103.931 81.952C103.931 82.528 104.227 82.96 104.819 83.248C105.427 83.52 106.347 83.792 107.579 84.064C108.859 84.368 109.907 84.672 110.723 84.976C111.539 85.28 112.235 85.76 112.811 86.416C113.403 87.072 113.699 87.96 113.699 89.08C113.699 90.04 113.427 90.92 112.883 91.72C112.355 92.504 111.555 93.128 110.483 93.592C109.411 94.056 108.107 94.288 106.571 94.288ZM116.355 77.2H120.243V94H116.355V77.2ZM131.694 94.288C129.294 94.288 127.422 93.624 126.078 92.296C124.75 90.968 124.086 89.072 124.086 86.608V77.2H127.974V86.464C127.974 89.472 129.222 90.976 131.718 90.976C132.934 90.976 133.862 90.616 134.502 89.896C135.142 89.16 135.462 88.016 135.462 86.464V77.2H139.302V86.608C139.302 89.072 138.63 90.968 137.286 92.296C135.958 93.624 134.094 94.288 131.694 94.288ZM158.432 94L158.408 83.92L153.464 92.224H151.712L146.792 84.136V94H143.144V77.2H146.36L152.648 87.64L158.84 77.2H162.032L162.08 94H158.432ZM71.7533 109.368H66.3773V106.2H81.0173V109.368H75.6413V123H71.7533V109.368ZM93.3294 119.4H85.5294L84.0414 123H80.0574L87.5454 106.2H91.3854L98.8974 123H94.8174L93.3294 119.4ZM92.1054 116.448L89.4414 110.016L86.7774 116.448H92.1054ZM106.16 123.288C104.832 123.288 103.544 123.112 102.296 122.76C101.064 122.392 100.072 121.92 99.3204 121.344L100.64 118.416C101.36 118.944 102.216 119.368 103.208 119.688C104.2 120.008 105.192 120.168 106.184 120.168C107.288 120.168 108.104 120.008 108.632 119.688C109.16 119.352 109.424 118.912 109.424 118.368C109.424 117.968 109.264 117.64 108.944 117.384C108.64 117.112 108.24 116.896 107.744 116.736C107.264 116.576 106.608 116.4 105.776 116.208C104.496 115.904 103.448 115.6 102.632 115.296C101.816 114.992 101.112 114.504 100.52 113.832C99.9444 113.16 99.6564 112.264 99.6564 111.144C99.6564 110.168 99.9204 109.288 100.448 108.504C100.976 107.704 101.768 107.072 102.824 106.608C103.896 106.144 105.2 105.912 106.736 105.912C107.808 105.912 108.856 106.04 109.88 106.296C110.904 106.552 111.8 106.92 112.568 107.4L111.368 110.352C109.816 109.472 108.264 109.032 106.712 109.032C105.624 109.032 104.816 109.208 104.288 109.56C103.776 109.912 103.52 110.376 103.52 110.952C103.52 111.528 103.816 111.96 104.408 112.248C105.016 112.52 105.936 112.792 107.168 113.064C108.448 113.368 109.496 113.672 110.312 113.976C111.128 114.28 111.824 114.76 112.4 115.416C112.992 116.072 113.288 116.96 113.288 118.08C113.288 119.04 113.016 119.92 112.472 120.72C111.944 121.504 111.144 122.128 110.072 122.592C109 123.056 107.696 123.288 106.16 123.288ZM122.065 116.4L119.809 118.752V123H115.945V106.2H119.809V114.048L127.249 106.2H131.569L124.609 113.688L131.977 123H127.441L122.065 116.4Z" fill="#FFC107"/>
<path d="M53.7282 84.5092C53.4571 84.196 52.9835 84.1618 52.6703 84.4329C52.3571 84.704 52.323 85.1776 52.594 85.4908L53.7282 84.5092ZM55.2353 87.3964L54.6682 87.8872C54.8225 88.0655 55.0516 88.1608 55.2868 88.1446C55.522 88.1284 55.7359 88.0026 55.8643 87.8049L55.2353 87.3964ZM62.2902 77.9085C62.5158 77.561 62.417 77.0966 62.0696 76.871C61.7222 76.6454 61.2577 76.7442 61.0321 77.0916L62.2902 77.9085ZM52.594 85.4908L54.6682 87.8872L55.8024 86.9056L53.7282 84.5092L52.594 85.4908ZM55.8643 87.8049L62.2902 77.9085L61.0321 77.0916L54.6063 86.988L55.8643 87.8049Z" fill="#FFC107"/>
</svg>
